<?xml version="1.0" standalone="no"?><!DOCTYPE svg PUBLIC "-//W3C//DTD SVG 1.1//EN" "http://www.w3.org/Graphics/SVG/1.1/DTD/svg11.dtd"><svg t="1649667500214" class="icon" viewBox="0 0 1024 1024" version="1.1" xmlns="http://www.w3.org/2000/svg" p-id="3597" width="16" height="16" xmlns:xlink="http://www.w3.org/1999/xlink"><defs><style type="text/css">@font-face { font-family: feedback-iconfont; src: url("//at.alicdn.com/t/font_1031158_u69w8yhxdu.woff2?t=1630033759944") format("woff2"), url("//at.alicdn.com/t/font_1031158_u69w8yhxdu.woff?t=1630033759944") format("woff"), url("//at.alicdn.com/t/font_1031158_u69w8yhxdu.ttf?t=1630033759944") format("truetype"); }
</style></defs><path d="M509.92 795.84c157.904 0 285.92-128.016 285.92-285.92C795.84 352 667.808 224 509.92 224 352 224 224 352 224 509.92c0 157.904 128 285.92 285.92 285.92z m0 48C325.504 843.84 176 694.32 176 509.92 176 325.504 325.504 176 509.92 176c184.416 0 333.92 149.504 333.92 333.92 0 184.416-149.504 333.92-333.92 333.92z m-2.448-400.704h16a16 16 0 0 1 16 16v201.728a16 16 0 0 1-16 16h-16a16 16 0 0 1-16-16V459.136a16 16 0 0 1 16-16z m0-100.176h16a16 16 0 0 1 16 16v23.648a16 16 0 0 1-16 16h-16a16 16 0 0 1-16-16v-23.648a16 16 0 0 1 16-16z" p-id="3598" fill="#d9d9d9"></path></svg>